# xmcd CD database file
#
# Track frame offsets:
#	150
#	15488
#	31297
#	46053
#	58476
#	78225
#	102211
#	113323
#	142033
#	180497
#	202109
#	211936
#	223200
#	237689
#
# Disc length: 3479 seconds
#
# Revision: 0
# Processed by: cddbd v1.5.2PL0 Copyright (c) Steve Scherf et al.
# Submitted via: CDex 1.70beta2
#
DISCID=c50d950e
DTITLE=Various Artist - Golden Legends - Jazz Legends
DYEAR=2006
DGENRE=Jazz
TTITLE0=Mack the Knife - Louis Armstrong
TTITLE1=Ain't Misbehavin' - Count Basie
TTITLE2=I'll Always Be In Love With You - Bunny Berigan
TTITLE3=Sweet Georgia Brown - Roy Elridge
TTITLE4=I've Got Rhythm - Jimmy Dorsey
TTITLE5=Take the A Train - Duke Ellington
TTITLE6=A Tisket, A Tasket - Ella Fitzgerald
TTITLE7=Sing, Sing, Sing - Benny Goodman
TTITLE8=Stardust - Lionel Hampton
TTITLE9=Woodchopper's Ball - Woody Herman
TTITLE10=Crazy They Called Me - Billie Holiday
TTITLE11=Ciribiribin - Harry James
TTITLE12=To Birdland and Hurry - Herbie Mann
TTITLE13=Round Midnight - Charlie Parker
EXTD=YEAR: 2006
EXTT0=
EXTT1=
EXTT2=
EXTT3=
EXTT4=
EXTT5=
EXTT6=
EXTT7=
EXTT8=
EXTT9=
EXTT10=
EXTT11=
EXTT12=
EXTT13=
PLAYORDER=
